# xmcd
#
# Track frame offsets:
#	150
#	19535
#	47370
#	70290
#	97550
#	115005
#	139685
#	173778
#	191908
#	215188
#	231375
#	255823
#	279893
#	311670
#
# Disc length: 4599 seconds
#
# Revision: 0
# Processed by: cddbd v1.5.2PL0 Copyright (c) Steve Scherf et al.
# Submitted via: audiograbber 1.83.01
#
DISCID=b711f50e
DTITLE=Bonobo - Black Sands Remixed
DYEAR=2012
DGENRE=Electronic
TTITLE0=Prelude [Lapalux's Finger on the Tape remix]
TTITLE1=The Keeper [Banks remix]
TTITLE2=Kiara [Cosmin TRG remix]
TTITLE3=Eyesdown [Floating Points remix]
TTITLE4=Eyesdown [ARP 101 remix]
TTITLE5=Eyesdown [featuring Andreya Triana and DELS]
TTITLE6=All In Forms [FaltyDL remix]
TTITLE7=Ghost Ship
TTITLE8=Stay The Same [Mark Pritchard remix]
TTITLE9=Eyesdown [Machinedrum remix]
TTITLE10=All In Forms [Mike Slott remix]
TTITLE11=Stay The Same [Blue Daisy 'Not Quite The Same' remix]
TTITLE12=Brace Brace
TTITLE13=Black Sands [Duke Dumont's 'Grains Of Sand' Reconstruction edit]
EXTD=
EXTT0=
EXTT1=
EXTT2=
EXTT3=
EXTT4=
EXTT5=
EXTT6=
EXTT7=
EXTT8=
EXTT9=
EXTT10=
EXTT11=
EXTT12=
EXTT13=
PLAYORDER=
